<svg xmlns="http://www.w3.org/2000/svg" id="Ebene_1" data-name="Ebene 1" viewBox="0 0 379.38 107.37">
    <path d="M46.73,86.89l-7.5,11.8h88.82l-22.6-35.78A30,30,0,0,1,98.8,74.49l7.83,12.4Z" class="cls-1"/>
    <path d="M34.57,86.89h0l36-57.07,13,20.51h0a7.23,7.23,0,0,1-6,11.24H62.67L55.24,73.38H77.51a18.75,18.75,0,0,0,19-19,19,19,0,0,0-2.79-9.91h0L70.59,7.71l-57.46,91H27.07Z" class="cls-1"/>
    <path d="M116.75,34.5H133c5.66,0,8.37,3.7,8.37,7.32a6.41,6.41,0,0,1-4.9,6.59,6.87,6.87,0,0,1,5.45,7c0,4.18-2.78,7.8-8.4,7.8H116.75Zm14.54,11.11a2.43,2.43,0,0,0,2.53-2.5,2.39,2.39,0,0,0-2.53-2.45h-7.16v5Zm.26,11.46a2.57,2.57,0,0,0,2.83-2.63,2.65,2.65,0,0,0-2.83-2.71h-7.42v5.34Z" class="cls-1"/>
    <path d="M149.34,34.5h21v6.24h-13.6v4.78H170v6.29h-13.3V57h13.6v6.25h-21Z" class="cls-1"/>
    <path d="M190,53.49h-3.77v9.74h-7.38V34.5h14.33c6.35,0,9.95,4.22,9.95,9.56a8.69,8.69,0,0,1-5.71,8.61l5.84,10.56h-8.45Zm2.06-12.75h-5.83V47.2h5.83a3.25,3.25,0,1,0,0-6.46Z" class="cls-1"/>
    <path d="M223.84,34c6.26,0,10.12,3.1,12.23,6.68L229.89,44a7.12,7.12,0,0,0-6-3.4c-4.67,0-8,3.62-8,8.31s3.31,8.32,8,8.32c3.47,0,5.75-2,6.43-4.14h-7.59v-6.2H238.3c0,10.85-5.84,16.88-15.15,16.88a14.45,14.45,0,0,1-14.79-14.86C208.36,39.75,215.31,34,223.84,34Z" class="cls-1"/>
    <path d="M244.21,34.5h14.33c6.43,0,9.95,4.35,9.95,9.56s-3.52,9.43-9.95,9.43h-7v9.74h-7.38Zm13.34,6.24h-6V47.2h6A3.16,3.16,0,0,0,261,44,3.21,3.21,0,0,0,257.55,40.74Z" class="cls-1"/>
    <path d="M274.36,34.5h7.51V51.34c0,3.4,1.8,5.86,5.79,5.86s5.75-2.46,5.75-5.86V34.5h7.5v17c0,7.16-4.07,12.19-13.25,12.19s-13.3-5.08-13.3-12.14Z" class="cls-1"/>
    <path d="M308.63,34.5H316V56.77H327.5v6.46H308.63Z" class="cls-1"/>
    <path d="M335.74,53.62a12.86,12.86,0,0,0,9.13,3.79c2.53,0,4.08-1.07,4.08-2.45,0-1.64-1.85-2.29-4.89-2.93-4.72-1-11.33-2.16-11.33-9,0-4.83,4.08-9,11.41-9a17.41,17.41,0,0,1,11.63,4l-4,5.3a13.25,13.25,0,0,0-8.06-3c-2.44,0-3.39,1-3.39,2.24,0,1.51,1.76,2,4.94,2.63,4.71,1,11.23,2.36,11.23,8.87,0,5.77-4.24,9.6-11.92,9.6-5.79,0-9.82-1.8-12.7-4.56Z" class="cls-1"/>
</svg>
